# xmcd
#
# Track frame offsets:
#	150
#	13497
#	28452
#	52304
#	68092
#	86648
#	105116
#	120445
#	136386
#	153455
#	169317
#
# Disc length: 2525 seconds
#
# Revision: 1
# Processed by: cddbd v1.5.2PL0 Copyright (c) Steve Scherf et al.
# Submitted via: audiograbber 1.80
#
DISCID=9809db0b
DTITLE=NIK and JAY - 3 - FRESH -FRI-FLY
DYEAR=1900
DGENRE=
TTITLE0=ALT HVAD DU GØR MIG TIL
TTITLE1=BOING!
TTITLE2=NÅR ET LYS SLUKKES
TTITLE3=I LOVE YA
TTITLE4=NU ER DET FOR SENT
TTITLE5=FRESH - FRI - FLY
TTITLE6=ARSTIDERNE SKIFTER
TTITLE7=OP PÅ HESTEN
TTITLE8=ET SIDSTE KYS
TTITLE9=GI'R DIG MER'
TTITLE10=VIDNE TIL DET HELE
EXTD=
EXTT0=
EXTT1=
EXTT2=
EXTT3=
EXTT4=
EXTT5=
EXTT6=
EXTT7=
EXTT8=
EXTT9=
EXTT10=
PLAYORDER=
